<svg width="159" height="56" viewBox="0 0 159 56" fill="none" xmlns="http://www.w3.org/2000/svg">
<g clip-path="url(#clip0_1_4)">
<g filter="url(#filter0_d_1_4)">
<path d="M48.4688 33.0625C52.125 29.3125 53.9062 25.5625 54 22.1875C54 16 48.375 11.0312 38.0625 9.53125C25.9688 7.65625 11.0625 10.9375 0 17.2188C4.875 14.6875 10.3125 12.7188 15.9375 11.7812C22.9688 9.8125 30.2812 9.34375 36.75 10.375C51 12.625 55.125 22.2812 45.9375 32.125C45 33.0625 43.875 34.0938 42.6562 34.9375L28.5 13.75L10.6875 40.4688C4.59375 37.75 3.5625 32.0312 8.90625 26.3125C10.875 24.25 13.4062 22.375 16.4062 20.875C18.2812 19.75 20.0625 18.7188 22.2188 17.9688C16.125 19.9375 10.6875 22.9375 7.03125 26.6875C4.40625 29.4062 3.1875 32.0312 3.09375 34.4688C3.09375 37.75 5.34375 40.5625 9.5625 42.25L6.28125 47.125H15.8438L17.9062 43.8438C19.9688 43.9375 22.125 43.8438 24.2812 43.6562L22.2188 47.125H34.875L31.875 42.1562C33.5625 41.5938 35.25 41.0312 36.9375 40.375L41.25 47.125H50.8125L43.875 36.7188C45.6562 35.5938 47.1562 34.375 48.4688 33.0625ZM30.8438 40.5625L28.5 36.8125L25.5 41.7812C23.25 42.0625 21.0938 42.25 19.0312 42.1562L28.5 27.25L35.9062 38.7812C34.3125 39.4375 32.625 40.0938 30.8438 40.5625Z" fill="white"/>
</g>
<g filter="url(#filter1_d_1_4)">
<path d="M54.12 40L57.048 33.304H55.56V31.6H63.9L67.548 40H64.308L63.396 37.9H58.284L57.372 40H54.12ZM59.028 36.196H62.652L61.38 33.304H60.3L59.028 36.196ZM66.4425 35.2V33.64H70.1025L72.9825 37.48L75.8625 33.64H79.1625L74.4225 40H71.5425L67.8825 35.2H66.4425ZM80.123 40V36.82L87.863 35.86V35.2H83.123V35.74L80.123 36.04V33.64H90.863V40H88.715L88.103 39.4L87.503 40H80.123ZM83.123 38.44H87.863V37.312L83.123 37.9V38.44ZM93.0253 40V33.64H95.1733L95.7853 34.24L96.3853 33.64H100.825L103.765 35.08V40H100.765V35.56L100.045 35.2H96.0253V40H93.0253ZM105.81 39.64L108.81 39.94V40.48H113.55V39.64L105.81 38.68V33.64H113.19L113.79 34.24L114.402 33.64H116.55V42.04H105.81V39.64ZM108.81 37.54L113.55 38.14V35.2H108.81V37.54ZM118.713 40V36.82L126.453 35.86V35.2H121.713V35.74L118.713 36.04V33.64H129.453V40H127.305L126.693 39.4L126.093 40H118.713ZM121.713 38.44H126.453V37.312L121.713 37.9V38.44ZM130.535 35.2V33.64H134.183L134.795 34.24L135.395 33.64H141.455V36.28L138.455 35.98V35.2H135.035V40H132.035V35.2H130.535ZM142.9 40V34.36L150.64 33.4V31.6H153.64V40H151.492L150.88 39.4L150.28 40H142.9ZM145.9 38.44H150.64V34.9L145.9 35.5V38.44Z" fill="white"/>
</g>
</g>
<defs>
<filter id="filter0_d_1_4" x="-4" y="7.65625" width="63.125" height="47.4688" filterUnits="userSpaceOnUse" color-interpolation-filters="sRGB">
<feFlood flood-opacity="0" result="BackgroundImageFix"/>
<feColorMatrix in="SourceAlpha" type="matrix" values="0 0 0 0 0 0 0 0 0 0 0 0 0 0 0 0 0 0 127 0" result="hardAlpha"/>
<feOffset dy="4"/>
<feGaussianBlur stdDeviation="2"/>
<feComposite in2="hardAlpha" operator="out"/>
<feColorMatrix type="matrix" values="0 0 0 0 1 0 0 0 0 0 0 0 0 0 0 0 0 0 0.71 0"/>
<feBlend mode="normal" in2="BackgroundImageFix" result="effect1_dropShadow_1_4"/>
<feBlend mode="normal" in="SourceGraphic" in2="effect1_dropShadow_1_4" result="shape"/>
</filter>
<filter id="filter1_d_1_4" x="50.12" y="29.6" width="107.52" height="18.44" filterUnits="userSpaceOnUse" color-interpolation-filters="sRGB">
<feFlood flood-opacity="0" result="BackgroundImageFix"/>
<feColorMatrix in="SourceAlpha" type="matrix" values="0 0 0 0 0 0 0 0 0 0 0 0 0 0 0 0 0 0 127 0" result="hardAlpha"/>
<feOffset dy="2"/>
<feGaussianBlur stdDeviation="2"/>
<feComposite in2="hardAlpha" operator="out"/>
<feColorMatrix type="matrix" values="0 0 0 0 1 0 0 0 0 0 0 0 0 0 0 0 0 0 0.71 0"/>
<feBlend mode="normal" in2="BackgroundImageFix" result="effect1_dropShadow_1_4"/>
<feBlend mode="normal" in="SourceGraphic" in2="effect1_dropShadow_1_4" result="shape"/>
</filter>
<clipPath id="clip0_1_4">
<rect width="159" height="56" fill="white"/>
</clipPath>
</defs>
</svg>
