<svg width="60" height="56" viewBox="0 0 60 56" fill="none" xmlns="http://www.w3.org/2000/svg">
<g clip-path="url(#clip0_213_3)">
<g filter="url(#filter0_d_213_3)">
<path d="M51.4688 33.0625C55.125 29.3125 56.9062 25.5625 57 22.1875C57 16 51.375 11.0312 41.0625 9.53125C28.9688 7.65625 14.0625 10.9375 3 17.2188C7.875 14.6875 13.3125 12.7188 18.9375 11.7812C25.9688 9.8125 33.2812 9.34375 39.75 10.375C54 12.625 58.125 22.2812 48.9375 32.125C48 33.0625 46.875 34.0938 45.6562 34.9375L31.5 13.75L13.6875 40.4688C7.59375 37.75 6.5625 32.0312 11.9062 26.3125C13.875 24.25 16.4062 22.375 19.4062 20.875C21.2812 19.75 23.0625 18.7188 25.2188 17.9688C19.125 19.9375 13.6875 22.9375 10.0312 26.6875C7.40625 29.4062 6.1875 32.0312 6.09375 34.4688C6.09375 37.75 8.34375 40.5625 12.5625 42.25L9.28125 47.125H18.8438L20.9062 43.8438C22.9688 43.9375 25.125 43.8438 27.2812 43.6562L25.2188 47.125H37.875L34.875 42.1562C36.5625 41.5938 38.25 41.0312 39.9375 40.375L44.25 47.125H53.8125L46.875 36.7188C48.6562 35.5938 50.1562 34.375 51.4688 33.0625ZM33.8438 40.5625L31.5 36.8125L28.5 41.7812C26.25 42.0625 24.0938 42.25 22.0312 42.1562L31.5 27.25L38.9062 38.7812C37.3125 39.4375 35.625 40.0938 33.8438 40.5625Z" fill="white"/>
</g>
</g>
<defs>
<filter id="filter0_d_213_3" x="-1" y="7.65625" width="63.125" height="47.4688" filterUnits="userSpaceOnUse" color-interpolation-filters="sRGB">
<feFlood flood-opacity="0" result="BackgroundImageFix"/>
<feColorMatrix in="SourceAlpha" type="matrix" values="0 0 0 0 0 0 0 0 0 0 0 0 0 0 0 0 0 0 127 0" result="hardAlpha"/>
<feOffset dy="4"/>
<feGaussianBlur stdDeviation="2"/>
<feComposite in2="hardAlpha" operator="out"/>
<feColorMatrix type="matrix" values="0 0 0 0 1 0 0 0 0 0 0 0 0 0 0 0 0 0 0.71 0"/>
<feBlend mode="normal" in2="BackgroundImageFix" result="effect1_dropShadow_213_3"/>
<feBlend mode="normal" in="SourceGraphic" in2="effect1_dropShadow_213_3" result="shape"/>
</filter>
<clipPath id="clip0_213_3">
<rect width="60" height="56" fill="white"/>
</clipPath>
</defs>
</svg>
